<svg width="130" height="130" viewBox="0 0 130 130" fill="none" xmlns="http://www.w3.org/2000/svg">
<circle cx="65" cy="65" r="65" fill="#303030"/>
<g clip-path="url(#clip0_524_9192)">
<path d="M103.017 83.8793L75.1856 68.7272C74.0983 68.1346 73.3087 67.1145 73.0075 65.9134C72.9915 65.8509 72.9755 65.7869 72.9595 65.7212C72.6133 64.3359 71.9259 63.1081 71.0013 62.1166C70.7127 62.0857 70.4204 62.0682 70.125 62.0682C66.3598 62.0682 63.0782 64.6307 62.1654 68.2838C62.1494 68.3495 62.1334 68.4135 62.1174 68.476C61.8163 69.677 61.0268 70.6973 59.9392 71.2898L32.1078 86.4417C31.2082 87.0635 30.7253 88.0645 30.7275 89.0831L64.9999 69.7617L69.835 72.4875L70.1248 72.3242L100.943 89.6984C102.061 89.7865 103.192 89.2875 103.859 88.2865C104.828 86.8324 104.453 84.8722 103.017 83.8793Z" fill="#A16235"/>
<path d="M103.927 82.5618C103.817 82.4857 94.0424 77.172 75.9519 67.3208C75.1474 66.8824 74.7247 66.2021 74.5132 65.3328C73.552 61.4865 70.4108 58.6615 66.6013 58.0356V54.5403C70.2518 53.7962 73.0074 50.5605 73.0074 46.6936C73.0074 42.2782 69.4153 38.6859 64.9998 38.6859C60.5843 38.6859 56.9921 42.2781 56.9921 46.6936C56.9921 47.5779 57.7091 48.2951 58.5937 48.2951C59.4782 48.2951 60.1952 47.5779 60.1952 46.6936C60.1952 44.0444 62.3506 41.889 64.9998 41.889C67.649 41.889 69.8044 44.0444 69.8044 46.6936C69.8044 49.3428 67.649 51.4982 64.9998 51.4982C64.1153 51.4982 63.3982 52.2153 63.3982 53.0997V58.0356C59.5888 58.6617 56.4472 61.488 55.4838 65.3432C55.4695 65.4019 55.4553 65.4593 55.4386 65.524C55.247 66.2887 54.7399 66.9438 54.0481 67.3207C35.9578 77.1716 26.1824 82.4857 26.0723 82.5618C23.9311 84.0413 23.364 87.0079 24.8076 89.175C26.2822 91.3869 29.2651 91.9777 31.4707 90.5025L32.4785 89.9346H97.5204L98.5282 90.5025C100.747 91.9868 103.727 91.3718 105.192 89.1746C106.636 87.0079 106.068 84.0413 103.927 82.5618ZM38.1584 86.7315L64.9998 71.6004L91.8414 86.7317H38.1584V86.7315ZM102.527 87.3983C102.026 88.1483 101.015 88.3303 100.286 87.824C100.185 87.754 100.303 87.8226 65.7863 68.3668C65.2981 68.0915 64.7016 68.0915 64.2134 68.3668C64.1886 68.3807 62.8285 69.1475 29.8402 87.7451C29.7968 87.7694 29.7549 87.7957 29.7141 87.824C28.9786 88.334 27.9697 88.1433 27.4733 87.3986C27.0055 86.6966 27.1712 85.7428 27.8363 85.2381L55.5805 70.1335C57.0374 69.3395 58.1375 67.9922 58.594 66.1094C59.3301 63.1639 61.9642 61.1072 64.9999 61.1072C68.0357 61.1072 70.6698 63.1643 71.4032 66.0991C71.8619 67.9825 72.9496 69.3326 74.4199 70.1338L102.163 85.2381C102.829 85.7428 102.994 86.6964 102.527 87.3983Z" fill="#EEC29E"/>
</g>
<defs>
<clipPath id="clip0_524_9192">
<rect width="81.982" height="81.982" fill="white" transform="translate(24.0088 24.009)"/>
</clipPath>
</defs>
</svg>
